<svg width="50" height="50" viewBox="0 0 50 50" fill="none" xmlns="http://www.w3.org/2000/svg">
<circle cx="25" cy="25" r="25" fill="#010108"/>
<path d="M10.5508 34.5742C9.91927 34.5547 9.3724 34.4082 8.91016 34.1348C8.44792 33.8613 8.0638 33.5 7.75781 33.0508C7.46484 32.6211 7.24349 32.1393 7.09375 31.6055C6.94401 31.0781 6.86914 30.554 6.86914 30.0332V28.3828C6.86914 27.4453 6.64453 26.765 6.19531 26.3418C5.7526 25.9186 5.07227 25.7038 4.1543 25.6973V24.2812C5.07227 24.2812 5.7526 24.0729 6.19531 23.6562C6.64453 23.2331 6.86914 22.5495 6.86914 21.6055V19.9453C6.86914 19.418 6.9375 18.8809 7.07422 18.334C7.21745 17.7806 7.44206 17.2858 7.74805 16.8496C8.03451 16.4329 8.40885 16.0944 8.87109 15.834C9.33333 15.5671 9.89323 15.4238 10.5508 15.4043L10.7559 16.5273C10.2871 16.5404 9.91276 16.651 9.63281 16.8594C9.35938 17.0677 9.1543 17.3314 9.01758 17.6504C8.87435 17.9759 8.7832 18.3405 8.74414 18.7441C8.70508 19.1478 8.68555 19.5482 8.68555 19.9453V21.6055C8.68555 22.3867 8.50326 23.0736 8.13867 23.666C7.7806 24.252 7.22396 24.6979 6.46875 25.0039C7.22396 25.3034 7.7806 25.7493 8.13867 26.3418C8.49674 26.9277 8.67904 27.6081 8.68555 28.3828V30.0332C8.68555 30.4368 8.7181 30.8372 8.7832 31.2344C8.84831 31.638 8.96224 31.9993 9.125 32.3184C9.28125 32.6439 9.48958 32.9108 9.75 33.1191C10.0169 33.3275 10.3522 33.4382 10.7559 33.4512L10.5508 34.5742ZM40.1895 33.4512C40.5866 33.4382 40.9186 33.3275 41.1855 33.1191C41.4525 32.9108 41.6673 32.6439 41.8301 32.3184C41.9863 31.9993 42.097 31.638 42.1621 31.2344C42.2337 30.8372 42.2695 30.4368 42.2695 30.0332V28.3828C42.2695 27.8685 42.3444 27.3932 42.4941 26.957C42.6504 26.5208 42.888 26.1432 43.207 25.8242C43.3763 25.6549 43.5651 25.502 43.7734 25.3652C43.9883 25.2285 44.2227 25.1081 44.4766 25.0039C44.2161 24.8997 43.9753 24.776 43.7539 24.6328C43.5391 24.4896 43.3503 24.3301 43.1875 24.1543C42.875 23.8288 42.6439 23.4512 42.4941 23.0215C42.3444 22.5853 42.2695 22.1133 42.2695 21.6055V19.9453C42.2695 19.5482 42.2467 19.1478 42.2012 18.7441C42.1621 18.3405 42.0742 17.9759 41.9375 17.6504C41.7943 17.3314 41.5859 17.0677 41.3125 16.8594C41.0391 16.651 40.668 16.5404 40.1992 16.5273L40.3945 15.4043C41.026 15.4238 41.5664 15.5573 42.0156 15.8047C42.4714 16.0521 42.8457 16.3743 43.1387 16.7715C43.4707 17.2207 43.7083 17.7253 43.8516 18.2852C44.0013 18.8451 44.0762 19.3984 44.0762 19.9453V21.6055C44.0762 21.9961 44.112 22.3411 44.1836 22.6406C44.2617 22.9336 44.3757 23.1875 44.5254 23.4023C44.7402 23.7083 45.0365 23.9329 45.4141 24.0762C45.7982 24.2129 46.2572 24.2812 46.791 24.2812V25.6973C46.3223 25.7038 45.9121 25.7624 45.5605 25.873C45.2155 25.9772 44.9323 26.1432 44.7109 26.3711C44.4961 26.5924 44.3366 26.8691 44.2324 27.2012C44.1283 27.5332 44.0762 27.9271 44.0762 28.3828V30.0332C44.0762 30.554 44.0046 31.0781 43.8613 31.6055C43.7181 32.1393 43.4967 32.6243 43.1973 33.0605C42.8913 33.4967 42.5072 33.8548 42.0449 34.1348C41.5827 34.4147 41.0326 34.5612 40.3945 34.5742L40.1895 33.4512Z" fill="white"/>
<path d="M21.7324 28.1973C21.7324 27.9824 21.6901 27.7904 21.6055 27.6211C21.5208 27.4453 21.3776 27.2858 21.1758 27.1426C20.974 26.9993 20.707 26.8691 20.375 26.752C20.043 26.6283 19.6296 26.5176 19.1348 26.4199C18.5293 26.2962 17.9759 26.1465 17.4746 25.9707C16.9798 25.7949 16.5566 25.5833 16.2051 25.3359C15.847 25.0951 15.5703 24.8118 15.375 24.4863C15.1797 24.1543 15.082 23.7702 15.082 23.334C15.082 22.9043 15.1829 22.5039 15.3848 22.1328C15.5866 21.7552 15.8698 21.4264 16.2344 21.1465C16.599 20.8665 17.0319 20.6452 17.5332 20.4824C18.041 20.3197 18.5977 20.2383 19.2031 20.2383C19.8542 20.2383 20.4401 20.3229 20.9609 20.4922C21.4818 20.6615 21.9245 20.8958 22.2891 21.1953C22.6536 21.4948 22.9336 21.8464 23.1289 22.25C23.3307 22.6471 23.4316 23.0768 23.4316 23.5391H21.625C21.625 23.3112 21.5664 23.0898 21.4492 22.875C21.332 22.6536 21.1693 22.4583 20.9609 22.2891C20.7526 22.1198 20.4987 21.9831 20.1992 21.8789C19.9062 21.7747 19.5742 21.7227 19.2031 21.7227C18.819 21.7227 18.4805 21.765 18.1875 21.8496C17.901 21.9342 17.6634 22.0482 17.4746 22.1914C17.2793 22.3346 17.1328 22.5007 17.0352 22.6895C16.9375 22.8783 16.8887 23.0736 16.8887 23.2754C16.8887 23.4837 16.9277 23.6693 17.0059 23.832C17.084 23.9948 17.2207 24.1413 17.416 24.2715C17.6048 24.4017 17.8587 24.5189 18.1777 24.623C18.5033 24.7272 18.9134 24.8281 19.4082 24.9258C20.0592 25.0625 20.6419 25.222 21.1562 25.4043C21.6706 25.5801 22.1035 25.7917 22.4551 26.0391C22.8066 26.293 23.0736 26.5859 23.2559 26.918C23.4447 27.25 23.5391 27.6341 23.5391 28.0703C23.5391 28.5391 23.4316 28.9655 23.2168 29.3496C23.0085 29.7337 22.7155 30.0625 22.3379 30.3359C21.9603 30.6094 21.5078 30.821 20.9805 30.9707C20.4531 31.1204 19.877 31.1953 19.252 31.1953C18.5358 31.1953 17.8978 31.1009 17.3379 30.9121C16.778 30.7168 16.306 30.4596 15.9219 30.1406C15.5312 29.8281 15.2318 29.4635 15.0234 29.0469C14.8216 28.6302 14.7207 28.1973 14.7207 27.748H16.5273C16.5534 28.1191 16.651 28.4316 16.8203 28.6855C16.9961 28.9395 17.2142 29.1445 17.4746 29.3008C17.7285 29.457 18.0117 29.5677 18.3242 29.6328C18.6367 29.6979 18.946 29.7305 19.252 29.7305C19.7337 29.7305 20.1536 29.6751 20.5117 29.5645C20.8698 29.4473 21.1497 29.2878 21.3516 29.0859C21.4753 28.9622 21.5697 28.8255 21.6348 28.6758C21.6999 28.526 21.7324 28.3665 21.7324 28.1973ZM26.5371 31V16.7812H29.8281C30.3815 16.7878 30.9023 16.8464 31.3906 16.957C31.8854 17.0612 32.3411 17.2109 32.7578 17.4062C33.3372 17.6732 33.8483 18.0247 34.291 18.4609C34.7402 18.8906 35.0983 19.3887 35.3652 19.9551C35.6061 20.4368 35.7884 20.9642 35.9121 21.5371C36.0423 22.11 36.1107 22.722 36.1172 23.373V24.418C36.1172 25.043 36.0553 25.6354 35.9316 26.1953C35.8145 26.7552 35.6419 27.2695 35.4141 27.7383C35.1797 28.2266 34.8835 28.6693 34.5254 29.0664C34.1673 29.4635 33.7669 29.8021 33.3242 30.082C32.8555 30.375 32.3249 30.5996 31.7324 30.7559C31.1465 30.9121 30.5117 30.9935 29.8281 31H26.5371ZM28.373 18.2656V29.5254H29.8281C30.349 29.5189 30.821 29.4538 31.2441 29.3301C31.6738 29.2064 32.0547 29.0306 32.3867 28.8027C32.7383 28.5684 33.041 28.2819 33.2949 27.9434C33.5553 27.5983 33.7604 27.2142 33.9102 26.791C34.0404 26.446 34.138 26.0749 34.2031 25.6777C34.2682 25.2741 34.304 24.8542 34.3105 24.418V23.3535C34.304 22.9108 34.265 22.4876 34.1934 22.084C34.1283 21.6738 34.0273 21.293 33.8906 20.9414C33.7148 20.4857 33.4772 20.0755 33.1777 19.7109C32.8848 19.3398 32.5234 19.0404 32.0938 18.8125C31.7878 18.6432 31.446 18.513 31.0684 18.4219C30.6908 18.3242 30.2773 18.2721 29.8281 18.2656H28.373Z" fill="#8FEA8F"/>
</svg>
